Coordinates
version=1
nRows=11
nColumns=40
inDegrees=yes

Units are S.I. units (second, meters, Newtons, ...)
Angles are in degrees.

endheader
time	pelvis_tilt	pelvis_list	pelvis_rotation	pelvis_tx	pelvis_ty	pelvis_tz	hip_flexion_r	hip_adduction_r	hip_rotation_r	knee_angle_r	knee_angle_r_beta	ankle_angle_r	subtalar_angle_r	mtp_angle_r	hip_flexion_l	hip_adduction_l	hip_rotation_l	knee_angle_l	knee_angle_l_beta	ankle_angle_l	subtalar_angle_l	mtp_angle_l	lumbar_extension	lumbar_bending	lumbar_rotation	arm_flex_r	arm_add_r	arm_rot_r	elbow_flex_r	pro_sup_r	wrist_flex_r	wrist_dev_r	arm_flex_l	arm_add_l	arm_rot_l	elbow_flex_l	pro_sup_l	wrist_flex_l	wrist_dev_l
      7.53000000	     -4.80902872	     -5.03030174	     -2.81480091	      0.97078181	      0.93306079	      0.46008644	     39.97130029	     -4.83282474	     -5.74488155	     71.67995475	     71.67995475	     -0.89361335	    -15.70716649	      2.27397680	     16.09310739	     -5.75306215	     -6.36066196	     20.87488783	     20.87488783	     11.43087116	    -12.14493501	     -2.05781405	    -13.39769436	      5.40195547	      1.78395597	     10.09586087	    -12.86220941	     -7.92506341	     65.94359691	     45.52954093	      0.00000000	      0.00000000	      7.86984943	    -13.56751126	      1.18052779	     44.38103741	     46.09427494	      0.00000000	      0.00000000
      7.54121429	     -4.77109122	     -5.12213759	     -2.89922541	      0.96985606	      0.93341708	      0.45989870	     40.82290775	     -4.70417488	     -5.88048740	     69.40007152	     69.40007152	     -0.96223630	    -15.46356531	      1.71867202	     15.31666829	     -5.82379120	     -6.53747986	     20.50765768	     20.50765768	     11.69708116	    -11.88348061	     -2.34243580	    -13.59336836	      5.59630537	      2.55415424	      7.85709867	    -13.38932877	     -8.07175268	     62.71105362	     45.63301944	      0.00000000	      0.00000000	      9.36611506	    -13.73092494	      0.56867772	     46.72284508	     46.21001172	      0.00000000	      0.00000000
      7.55242857	     -4.77936590	     -5.25274496	     -2.95133487	      0.96893989	      0.93366253	      0.45975310	     41.47226087	     -4.54636355	     -6.11050872	     66.73790809	     66.73790809	     -1.59127171	    -15.38531912	     -0.09364962	     14.61678384	     -5.95451967	     -6.75862175	     20.16152503	     20.16152503	     11.90471682	    -11.54616001	     -2.86209927	    -13.69537769	      5.79890989	      2.09327266	      7.59113525	    -12.86810108	     -8.73569468	     56.40381505	     45.86207507	      0.00000000	      0.00000000	      9.35036545	    -14.41299666	     -0.95504654	     51.12147845	     46.45118662	      0.00000000	      0.00000000
      7.56364286	     -4.74243905	     -5.36046153	     -2.98155576	      0.96805810	      0.93389809	      0.45959213	     41.91353934	     -4.38843159	     -6.31471307	     63.85546616	     63.85546616	     -1.98763312	    -15.10592035	     -1.05327268	     13.87670425	     -6.02670318	     -6.85169910	     19.82035518	     19.82035518	     12.19543489	    -11.33248245	     -3.02599080	    -13.87598539	      5.99775330	      1.69899229	      7.13320789	    -12.82398711	     -8.16174265	     50.83809449	     46.00175081	      0.00000000	      0.00000000	      9.61379515	    -14.71528981	     -3.20872554	     54.91015639	     46.76947276	      0.00000000	      0.00000000
      7.57485714	     -4.72147069	     -5.47329214	     -3.01817062	      0.96723833	      0.93402487	      0.45944328	     42.21654793	     -4.22149126	     -6.52234726	     60.77680657	     60.77680657	     -1.98106227	    -14.39178650	     -0.87298075	     13.17296278	     -6.10615185	     -6.93109351	     19.51521718	     19.51521718	     12.50650337	    -11.15157183	     -3.11988301	    -14.08493992	      6.24763023	      2.53866386	      5.07018021	    -13.36214955	     -8.01472956	     48.18863782	     46.07480513	      0.00000000	      0.00000000	     11.21976103	    -14.63124519	     -3.83414181	     57.10779021	     46.87529523	      0.00000000	      0.00000000
      7.58607143	     -4.71762481	     -5.53798419	     -3.04725037	      0.96652650	      0.93400530	      0.45934555	     42.35340061	     -4.09164843	     -6.71389698	     57.41999777	     57.41999777	     -1.98347076	    -13.50867184	     -0.77501159	     12.50465670	     -6.15006341	     -7.07714483	     19.24318747	     19.24318747	     12.83399847	    -10.88014401	     -3.28133725	    -14.25160837	      6.42917492	      3.17060731	      3.53419694	    -13.63545946	     -7.99793471	     44.67398164	     46.18783567	      0.00000000	      0.00000000	     12.45353526	    -14.60675209	     -4.54460841	     59.93273242	     46.99372069	      0.00000000	      0.00000000
      7.59728571	     -4.83295685	     -5.61217480	     -2.98666028	      0.96593955	      0.93376119	      0.45928218	     42.35750290	     -3.98117155	     -7.00543757	     53.67571700	     53.67571700	     -2.21392941	    -12.65356069	     -1.36773601	     11.98805750	     -6.21670722	     -7.18466659	     18.98829221	     18.98829221	     13.16904929	    -10.46590435	     -3.50365063	    -14.18357363	      6.58674409	      1.72483284	      4.86563620	    -12.87137634	     -8.29604850	     37.05047945	     46.46312638	      0.00000000	      0.00000000	     11.42598822	    -15.50564527	     -6.72681783	     65.18874791	     47.27389166	      0.00000000	      0.00000000
      7.60850000	     -4.92176583	     -5.67806809	     -2.89864057	      0.96554874	      0.93352167	      0.45916654	     42.10281202	     -3.91531290	     -7.40006700	     49.64568028	     49.64568028	     -2.05970645	    -11.34768921	     -1.08154791	     11.41750697	     -6.22907618	     -7.13838461	     18.69122372	     18.69122372	     13.44473269	    -10.35421717	     -3.55975877	    -14.15549168	      6.85923034	      2.14814688	      2.93715153	    -13.17836055	     -8.20676202	     35.48374082	     46.50176437	      0.00000000	      0.00000000	     12.75295460	    -15.40911631	     -7.27509073	     66.98821529	     47.35686927	      0.00000000	      0.00000000
      7.61971429	     -4.92945475	     -5.60410864	     -2.88927104	      0.96541362	      0.93317539	      0.45918669	     41.61628000	     -3.91416628	     -7.65170243	     45.43952846	     45.43952846	     -1.87221675	     -9.70236104	     -1.02312601	     10.70128720	     -6.10771761	     -7.20949832	     18.35343025	     18.35343025	     13.78922257	    -10.10641688	     -3.67336714	    -14.27903386	      6.86838225	      2.92365388	      1.12651318	    -13.37918300	     -8.09252229	     33.00013935	     46.57344125	      0.00000000	      0.00000000	     13.93549516	    -15.11960862	     -7.96874063	     70.26527384	     47.47655923	      0.00000000	      0.00000000
      7.63092857	     -5.02390860	     -5.54223159	     -2.78624952	      0.96556228	      0.93265302	      0.45925409	     40.90086925	     -3.89842400	     -8.06301612	     40.83958160	     40.83958160	     -1.92232489	     -8.21387874	     -1.54179292	     10.08335623	     -6.00705690	     -7.24896842	     18.02647393	     18.02647393	     14.13718394	     -9.79759904	     -3.79757689	    -14.16562423	      6.88994107	      1.82992317	      1.33087398	    -13.04741520	     -7.96465553	     28.51078907	     46.72038060	      0.00000000	      0.00000000	     13.06237841	    -15.73142356	     -9.87551632	     75.48716193	     47.72607616	      0.00000000	      0.00000000
      7.64214286	     -5.02791721	     -5.42951739	     -2.67163117	      0.96604103	      0.93216905	      0.45937431	     39.90142505	     -3.93062159	     -8.60038010	     36.16342658	     36.16342658	     -1.57989160	     -6.32165529	     -1.01060657	      9.30982803	     -5.83257384	     -7.23059565	     17.62633000	     17.62633000	     14.44220552	     -9.56987004	     -3.87509185	    -14.13273197	      6.89836815	      2.37160215	     -0.60970355	    -13.14822890	     -7.85447564	     27.10332204	     46.74927621	      0.00000000	      0.00000000	     14.21418262	    -15.49109659	    -10.31978506	     78.01849481	     47.81601376	      0.00000000	      0.00000000
